PathFileType	4	(X/Y/Z)	C:\Users\Basilio\Documents\Thesis Gigler\squatting_fais\c3dfiles\047\SJ_pre1\markers_experimental.trc
DataRate	CameraRate	NumFrames	NumMarkers	Units	OrigDataRate	OrigDataStartFrame	OrigNumFrames
200.000000	200.000000	4	61	mm	200.000000	826	1653
Frame#	Time	FHD			LBHD			RBHD			C7			T10			CLAV			LSHO			LUUPA			LMUPA			LDUPA			LLEP			LMEP			LRAD			LUL			LRFIN			RSHO			RUPA1			RMUPA			RDUPA			RLEP			RMEP			RRAD			RUL			RUFIN			LASI			RASI			USACR			LSACR			RSACR			LTHI1			LTHI2			LTHI3			LTHI4			LLFC			LMFC			LTIB1			LTIB2			LTIB3			LTIB4			LLMAL			LMMAL			LMT1			LMT2			LMT5			RTHI			RTHI2			RTHI3			RTHI4			RLFC			RMFC			RTIB1			RTIB2			RTIB3			RTIB4			RLMAL			RMMAL			RHEE			RMT1			RMT2			RMT5			*60			
		X1	Y1	Z1	X2	Y2	Z2	X3	Y3	Z3	X4	Y4	Z4	X5	Y5	Z5	X6	Y6	Z6	X7	Y7	Z7	X8	Y8	Z8	X9	Y9	Z9	X10	Y10	Z10	X11	Y11	Z11	X12	Y12	Z12	X13	Y13	Z13	X14	Y14	Z14	X15	Y15	Z15	X16	Y16	Z16	X17	Y17	Z17	X18	Y18	Z18	X19	Y19	Z19	X20	Y20	Z20	X21	Y21	Z21	X22	Y22	Z22	X23	Y23	Z23	X24	Y24	Z24	X25	Y25	Z25	X26	Y26	Z26	X27	Y27	Z27	X28	Y28	Z28	X29	Y29	Z29	X30	Y30	Z30	X31	Y31	Z31	X32	Y32	Z32	X33	Y33	Z33	X34	Y34	Z34	X35	Y35	Z35	X36	Y36	Z36	X37	Y37	Z37	X38	Y38	Z38	X39	Y39	Z39	X40	Y40	Z40	X41	Y41	Z41	X42	Y42	Z42	X43	Y43	Z43	X44	Y44	Z44	X45	Y45	Z45	X46	Y46	Z46	X47	Y47	Z47	X48	Y48	Z48	X49	Y49	Z49	X50	Y50	Z50	X51	Y51	Z51	X52	Y52	Z52	X53	Y53	Z53	X54	Y54	Z54	X55	Y55	Z55	X56	Y56	Z56	X57	Y57	Z57	X58	Y58	Z58	X59	Y59	Z59	X60	Y60	Z60	X61	Y61	Z61	

827	4.13	181.4645233154297	1103.35595703125	-872.4114990234377	30.21839904785157	1156.308959960938	-960.0354614257815	5.08221197128296	1170.319702148438	-814.1121826171877	-101.9100418090821	1062.2177734375	-889.674255371094	-357.7731323242188	873.6235351562502	-885.7903442382815	-24.95635032653809	908.7622070312502	-882.7811279296877	-47.64610290527344	974.1068115234377	-1060.611694335938	-193.692123413086	994.147644042969	-1180.7685546875	-190.195053100586	949.3647460937502	-1205.853515625	-242.0775299072266	972.5393676757815	-1227.884765625	-289.2385559082032	927.4655761718752	-1267.74267578125	-348.4847717285157	953.427917480469	-1193.7099609375	-358.7507629394532	753.7521362304689	-1092.438354492188	-357.2340698242188	701.4045410156251	-1149.9990234375	-321.0182800292969	706.3582763671876	-1056.327758789063	-58.48084640502931	1000.804260253906	-726.8463745117189	-217.7151489257813	1023.328369140625	-604.0239257812501	-218.9725952148438	979.7883911132815	-579.5958251953126	-269.9154968261719	1004.337097167969	-559.9033203125001	-317.8631591796876	956.3081054687502	-523.0365600585939	-378.9956970214844	973.7471923828127	-591.7451782226564	-336.0360107421876	760.9923706054689	-684.6407470703126	-332.0319213867188	718.5993041992189	-620.8500366210939	-304.0273742675782	706.5318603515626	-720.3422241210939	-440.4982910156251	602.8459472656251	-965.1509399414065	-387.8795471191407	603.2782592773439	-774.0566406250002	-480.9341430664064	780.9910888671877	-888.0100708007815	-507.2496337890626	764.1275024414064	-917.1416625976565	-508.8789978027345	762.4423217773439	-858.8321533203127	-458.6275634765626	600.9536743164064	-1111.563720703125	-380.1848144531251	591.5875244140626	-1131.813232421875	-350.9479370117188	623.1895141601564	-1108.843017578125	-355.0172424316407	544.4737548828126	-1159.164428710938	-230.8690185546876	439.3448181152345	-1197.550170898438	-168.8067169189453	422.8760681152345	-1084.24267578125	-231.7012329101563	266.0730590820313	-1113.252807617188	-278.1586303710938	233.1313018798829	-1180.47119140625	-254.1439819335938	222.894027709961	-1142.28173828125	-299.5777893066407	161.3658447265625	-1106.73681640625	-396.1451110839845	95.45626831054689	-1141.921997070313	-355.2819824218751	103.6705474853516	-1059.406494140625	-243.1865234375001	63.80737304687501	-1116.429077148438	-254.6847076416016	62.63612747192384	-1159.713989257813	-306.1010437011719	44.42501068115235	-1195.062866210938	-437.8989257812501	565.7797241210939	-650.1229248046876	-374.1460571289063	565.2273559570314	-631.9085693359376	-353.8159179687501	589.8172607421876	-639.6902465820314	-328.1367187500001	498.7766723632814	-609.8270874023439	-207.2219390869141	423.6041564941407	-597.6467285156251	-154.0611724853516	425.0011596679689	-720.6279296875001	-193.1777038574219	300.1905212402344	-625.6727294921876	-294.3673095703126	255.797348022461	-609.7703857421876	-253.0328369140626	237.3427124023438	-619.3997802734376	-262.0508117675782	195.1969146728516	-661.3033447265626	-392.4602355957032	91.15591430664064	-663.2966918945314	-346.3222351074219	103.4773178100586	-746.2291870117189	-444.8162231445314	53.00866699218751	-729.7814331054689	-233.6229248046876	53.45271301269533	-696.8637084960939	-242.8958740234376	58.29462814331056	-652.1956176757814	-301.3743286132813	32.22990036010743	-605.4043579101564	nan	nan	nan	
828	4.135	181.5756530761719	1103.452758789063	-872.5994262695315	30.18033409118653	1156.240600585938	-960.0888671875002	4.912382125854493	1170.265625	-813.9273681640627	-101.9548416137696	1062.309692382813	-889.6757812500002	-357.7407226562501	873.6035766601565	-885.8343505859377	-24.94001579284669	908.7612304687502	-882.8051757812502	-47.64592742919923	974.070739746094	-1060.61669921875	-193.7349243164063	994.1647949218752	-1180.774536132813	-190.4008941650391	949.2449951171877	-1205.874877929688	-242.080551147461	972.5254516601565	-1227.949951171875	-289.1886596679688	927.3919677734377	-1267.80322265625	-348.5068359375001	953.3453369140627	-1193.7109375	-358.7237243652344	753.6513061523439	-1092.487670898438	-357.2866516113282	701.3163452148439	-1150.038330078125	-321.0504455566407	706.2978515625001	-1056.351318359375	-58.52404403686525	1000.800231933594	-726.9282226562501	-217.6825866699219	1023.381103515625	-604.0746459960939	-218.9086151123047	979.891784667969	-579.8451538085939	-269.9022827148438	1004.37548828125	-559.8497314453126	-317.8258361816407	956.3081054687502	-523.0238037109376	-378.9434509277344	973.7222900390627	-591.6832275390626	-335.9516296386719	761.0112304687501	-684.6358032226564	-332.0573120117188	718.5869140625001	-620.8022460937501	-304.0115966796876	706.4795532226564	-720.1516113281251	-441.0643920898439	602.8854370117189	-965.484558105469	-387.8894653320314	602.9235229492189	-774.632507324219	-480.8880004882814	780.9700927734377	-888.0738525390627	-507.3155517578126	764.1769409179689	-917.212585449219	-508.8303527832032	762.4005737304689	-858.830017089844	-458.5845031738282	600.9326782226564	-1111.607055664063	-380.1163330078126	591.6199951171876	-1131.852416992188	-350.9044494628907	623.1606445312501	-1108.819091796875	-355.0223388671876	544.4733276367189	-1159.164428710938	-230.8128509521485	439.346405029297	-1197.550170898438	-168.8518524169922	422.7862854003907	-1084.131591796875	-231.6980590820313	266.0346984863282	-1113.224609375	-278.1473388671876	233.1339263916016	-1180.457641601563	-253.9330596923829	223.0414733886719	-1142.492431640625	-299.5595397949219	161.3729705810547	-1106.605834960938	-396.1052856445314	95.41068267822267	-1141.909790039063	-355.3017272949219	103.639877319336	-1059.411254882813	-243.2395172119141	63.7450294494629	-1116.38134765625	-255.1857147216797	62.82763671875001	-1159.7197265625	-306.1228637695313	44.43111801147462	-1194.99853515625	-437.8538208007814	565.7527465820314	-650.1535034179689	-374.1400451660157	565.2272338867189	-631.9388427734376	-353.7935791015626	589.7929687500001	-639.7463989257814	-328.0984802246094	498.9487304687501	-610.1951904296876	-207.1646728515626	423.5584411621095	-597.7717895507814	-153.9347229003907	425.0169372558595	-720.7239379882814	-193.1828308105469	300.2123413085938	-625.6682739257814	-294.3632202148438	255.8691101074219	-609.9124145507814	-253.0255432128907	237.3858337402344	-619.5411376953126	-262.0639343261719	195.2421569824219	-661.2987670898439	-392.4528808593751	91.15755462646486	-663.3075561523439	-346.3664550781251	103.4624252319336	-746.2136230468751	-444.8353881835939	53.00972747802736	-729.8203125000001	-233.6612243652344	53.45027542114259	-696.9001464843751	-242.9189147949219	58.295711517334	-652.1898803710939	-301.3887023925782	32.19248199462891	-605.4462280273439	nan	nan	nan	
829	4.14	181.6080627441407	1103.418090820313	-872.6429443359377	30.20284271240235	1156.2490234375	-960.1677246093752	4.925972938537599	1170.268432617188	-813.9299316406252	-101.9116744995117	1062.2392578125	-889.7481079101565	-357.7421875000001	873.5723876953127	-885.874206542969	-24.93949508666993	908.7620849609377	-882.803894042969	-47.72534561157227	974.0908813476565	-1060.635498046875	-193.6987915039063	994.046081542969	-1180.868041992188	-190.214111328125	949.235046386719	-1205.986694335938	-242.1040649414063	972.4604492187502	-1227.998046875	-289.1998596191407	927.3483886718752	-1267.81982421875	-348.4883422851563	953.3026123046877	-1193.749267578125	-358.7671813964844	753.6143798828126	-1092.536010742188	-357.2460327148438	701.2929077148439	-1150.075073242188	-320.9631652832032	706.3322753906251	-1056.429443359375	-58.5198440551758	1000.810852050781	-726.9579467773439	-217.7980499267579	1023.399780273438	-604.0393066406251	-218.9005126953126	979.9177246093752	-579.9015502929689	-269.8834533691407	1004.337158203125	-559.8901977539064	-317.7911682128907	956.2669677734377	-523.1031494140626	-378.9114685058594	973.676696777344	-591.7241210937501	-335.9041137695313	760.9857788085939	-684.6367187500001	-332.0532226562501	718.5950317382814	-620.7395019531251	-304.0144958496094	706.4706420898439	-720.1663208007814	-441.0844116210939	602.7777099609376	-965.2200317382815	-387.9331054687501	602.9901733398439	-774.4498291015627	-480.8110961914064	780.9439697265627	-888.1175537109377	-507.2712402343751	764.0773925781251	-917.2542724609377	-508.8546752929689	762.3475952148439	-858.8574218750002	-458.6039123535157	600.8952636718751	-1111.609130859375	-380.1258850097657	591.5886230468751	-1131.85693359375	-350.9230041503907	623.1295776367189	-1108.843383789063	-354.9964599609376	544.4323120117189	-1159.208129882813	-230.745590209961	439.3211364746095	-1197.570678710938	-168.8204498291016	422.7949218750001	-1084.201904296875	-231.6795501708985	266.0317687988282	-1113.251953125	-278.0819091796876	233.1371002197266	-1180.437744140625	-253.6929931640626	222.7253875732422	-1142.595336914063	-299.5417175292969	161.3555603027344	-1106.686157226563	-396.1210937500001	95.43627166748048	-1141.872802734375	-355.2785644531251	103.6466064453125	-1059.469848632813	-243.202621459961	63.73397445678712	-1116.388061523438	-255.0693817138672	62.876766204834	-1159.821533203125	-306.2587585449219	44.50123977661134	-1194.967529296875	-437.8379821777345	565.7086181640626	-650.2197875976564	-374.1392822265626	565.2276000976564	-631.9658813476564	-353.7936096191407	589.8083496093751	-639.7872924804689	-328.1354675292969	498.8847961425782	-610.2500610351564	-207.1614532470704	423.5478515625001	-597.8599853515626	-153.9820251464844	424.9550781250001	-720.7283325195314	-193.1769104003907	300.2043457031251	-625.6374511718751	-294.4393920898438	255.8365783691407	-609.8443603515626	-253.0882263183594	237.3490753173829	-619.4099121093751	-262.0648498535157	195.2374725341797	-661.2839355468751	-392.4531555175782	91.16683959960939	-663.2909545898439	-346.3393859863282	103.4697265625	-746.2422485351564	-444.8405151367189	53.01156234741212	-729.8029174804689	-233.6606597900391	53.43177032470705	-696.9008178710939	-242.9158477783204	58.31456375122072	-652.1806640625001	-301.3843383789063	32.17938232421876	-605.4360961914064	nan	nan	nan	
830	4.145	181.6412506103516	1103.455322265625	-872.7257080078127	30.10498237609864	1156.280883789063	-960.160583496094	4.949815273284913	1170.231079101563	-814.0415649414065	-101.909294128418	1062.191040039063	-889.8339843750002	-357.7092285156251	873.5535888671877	-885.899108886719	-24.96563720703126	908.7493286132815	-882.8771972656252	-47.73678588867188	974.0791015625002	-1060.680297851563	-193.6422271728516	994.0278930664065	-1180.921997070313	-190.0421142578125	949.237976074219	-1206.167114257813	-242.0779266357422	972.3867187500002	-1228.049560546875	-289.2190856933594	927.287292480469	-1267.883056640625	-348.5057373046876	953.2678833007815	-1193.767822265625	-358.7511291503907	753.5128784179689	-1092.60009765625	-357.2208862304688	701.2326660156251	-1150.134399414063	-320.8939819335938	706.3203125000001	-1056.533935546875	-58.50994110107423	1000.811401367188	-726.9990844726564	-217.7764892578126	1023.414306640625	-604.0231323242189	-218.898910522461	979.9287109375002	-579.9058227539064	-269.8721313476563	1004.340148925781	-559.8443603515626	-317.7821960449219	956.237976074219	-523.1673583984376	-378.9429016113282	973.6683349609377	-591.7234497070314	-335.8580322265626	760.9691162109376	-684.6298217773439	-332.0753173828126	718.5401000976564	-620.7447509765626	-304.0019531250001	706.4658813476564	-720.0858764648439	-441.2425842285157	602.8453369140626	-965.3069458007815	-387.7788696289064	602.9699096679689	-774.7129516601565	-480.8421020507814	780.9153442382815	-888.2061767578127	-507.2128295898439	764.1295776367189	-917.3206176757815	-508.767303466797	762.3634033203126	-858.887634277344	-458.5382080078126	600.8608398437501	-1111.651733398438	-380.1924743652344	591.6019897460939	-1131.890869140625	-350.8267211914063	623.1873168945314	-1108.9921875	-355.0112609863282	544.4388427734376	-1159.24658203125	-230.8144989013672	439.3274230957032	-1197.582153320313	-168.8390655517578	422.7560119628907	-1084.129028320313	-231.6844635009766	266.0023193359376	-1113.272338867188	-278.1035461425782	233.1223297119141	-1180.406616210938	-254.0561981201172	222.8998565673829	-1142.300659179688	-299.5467224121094	161.3186187744141	-1106.634643554688	-396.1250915527345	95.36569213867189	-1141.865112304688	-355.3025207519532	103.6424942016602	-1059.438598632813	-243.2053222656251	63.72924804687501	-1116.422607421875	-255.1854858398438	62.83169555664064	-1159.753295898438	-306.0269775390626	44.4020004272461	-1195.024658203125	-437.8913879394532	565.7486572265626	-650.2489624023439	-374.1832275390626	565.2296752929689	-632.0465087890626	-353.7557373046876	589.8010253906251	-639.8753662109376	-328.1658935546876	498.9144287109376	-610.2894287109376	-207.1735076904297	423.5784912109376	-597.8511352539064	-153.9177398681641	424.9788208007814	-720.7247314453126	-193.1947631835938	300.2303466796876	-625.6688232421876	-294.4984130859376	255.7585906982422	-609.7058105468751	-253.1061553955079	237.3998718261719	-619.5056762695314	-262.0948791503907	195.2355346679688	-661.2949829101564	-392.455291748047	91.16762542724611	-663.3051757812501	-346.3530273437501	103.4676971435547	-746.2138671875001	-444.8334350585939	52.98291397094728	-729.8509521484376	-233.6520233154297	53.47443008422853	-696.8651123046876	-242.9388427734376	57.81333923339845	-652.0905761718751	-301.3976440429688	32.19226074218751	-605.4291992187501	nan	nan	nan	
